<?xml version="1.0" encoding="utf-8"?>
<!-- Generator: Adobe Illustrator 16.0.0, SVG Export Plug-In . SVG Version: 6.00 Build 0)  -->
<!DOCTYPE svg PUBLIC "-//W3C//DTD SVG 1.1//EN" "http://www.w3.org/Graphics/SVG/1.1/DTD/svg11.dtd">
<svg version="1.1" id="text" xmlns="http://www.w3.org/2000/svg" xmlns:xlink="http://www.w3.org/1999/xlink" x="0px" y="0px"
	 width="1000px" height="300px" viewBox="0 0 1000 300" enable-background="new 0 0 1000 300" xml:space="preserve">
<g>
	<path fill="#35424D" d="M91.994,103.106L68.246,213.932H43.465l24.437-113.75c-19.273,0-34.418,5.507-34.418,34.59
		c0,8.776,2.237,10.153,2.409,11.702c-11.874,0-18.413-4.302-18.413-16.692c0-22.888,16.177-44.743,58.683-44.743
		c7.056,0,27.361,2.926,44.227,2.926c7.916,0,15.144-0.688,19.79-2.582c-2.409,7.228-2.581,22.2-16.349,22.2
		C114.71,107.581,103.523,105.171,91.994,103.106z"/>
	<path fill="#35424D" d="M136.732,127.887l-1.893,8.604c6.195-4.818,13.079-8.604,20.307-8.604c7.744,0,12.391,4.475,12.391,11.014
		c0,6.023-4.475,13.423-12.907,13.423c-9.637,0-4.818-11.358-9.981-11.358c-5.162,0-7.916,1.893-11.874,5.507l-14.283,67.458h-24.78
		l18.241-86.044H136.732z"/>
	<path fill="#35424D" d="M231.207,151.463c1.033,1.033,2.581,1.549,4.991,1.549c8.088,0,11.701-5.851,18.069-8.432l0.688,3.614
		c-5.334,6.71-14.283,12.391-24.264,15.145c-3.271,34.59-22.027,51.625-39.236,51.625c-18.414,0-26.33-7.744-26.33-28.223
		c0-42.333,21.512-60.574,45.26-60.574C226.733,126.166,230.863,138.9,231.207,151.463z M217.956,165.059
		c-4.99,0-7.228-3.615-7.228-7.744c0-4.99,2.926-10.325,7.572-12.046c-0.517-5.679-2.409-8.948-7.228-8.948
		c-16.177,0-23.062,35.106-23.062,48.872c0,10.326,4.818,13.08,11.53,13.08C210.04,198.271,215.892,181.75,217.956,165.059z"/>
	<path fill="#35424D" d="M320.003,127.887l-12.391,58.509c-0.345,1.894-0.688,3.787-0.688,5.336c0,3.785,1.721,6.539,8.604,6.539
		s15.833-9.637,22.716-15.145h5.852c-7.916,7.916-27.361,30.805-40.785,30.805c-11.702,0-19.618-4.475-21.167-14.455
		c-8.088,7.57-17.381,14.455-24.78,14.455c-13.251,0-21.512-5.852-21.512-18.758c0-2.582,0.345-5.508,1.032-8.777l12.391-58.509
		h24.781l-12.391,58.509c-0.344,1.894-0.688,3.787-0.688,5.336c0,3.785,1.721,6.539,8.604,6.539c3.614,0,7.916-2.754,12.219-6.194
		c0.172-1.722,0.516-3.613,1.032-5.681l12.391-58.509H320.003z"/>
	<path fill="#35424D" d="M370.249,93.469l-8.261,39.064c3.958-2.925,9.121-4.991,14.8-4.991c16.521,0,21.854,11.702,21.854,21.855
		c0,27.018-14.8,65.049-45.604,65.049c-17.037,0-28.396-4.818-28.396-19.617c0-2.41,0.345-5.336,1.032-8.435l19.103-89.485
		L370.249,93.469z M369.561,137.868c-1.721,0-7.743,1.205-9.293,2.409l-9.809,46.12c-0.86,4.131-1.377,7.229-1.377,9.465
		c0,5.164,2.409,6.367,7.571,6.367c14.11,0,22.716-39.236,22.716-51.627C379.369,140.277,373.862,137.868,369.561,137.868z"/>
	<path fill="#35424D" d="M446.309,93.469l-19.79,92.928c-0.517,2.582-0.859,4.131-0.859,5.508c0,3.785,1.893,6.367,8.604,6.367
		c6.884,0,15.832-9.638,22.716-15.146h5.852c-7.916,7.916-27.362,30.806-40.785,30.806c-13.251,0-21.339-5.853-21.339-18.759
		c0-2.582,0.344-5.508,1.032-8.776l19.103-89.486L446.309,93.469z"/>
	<path fill="#35424D" d="M485.198,201.541c6.54,0,12.391-4.646,17.381-12.563c0.688-12.22,6.713-19.273,13.08-19.791
		c6.194-11.187,10.151-26.501,13.078-39.581l24.953-5.163v2.41c0,28.395,11.7,37,11.7,57.134c0,1.203,0,2.408-0.172,3.613
		c4.818-4.304,9.121-8.777,11.187-11.187l4.475,5.853c-4.818,3.784-11.701,9.809-18.586,15.659
		c-4.475,9.466-14.283,16.005-30.287,16.005c-16.52,0-25.985-3.959-28.738-14.974c-7.057,8.949-16.005,14.974-29.943,14.974
		c-16.521,0-25.47-12.563-25.47-27.363c0-21.855,9.293-60.23,40.612-60.23c14.111,0,22.027,5.851,22.027,17.897
		c0,20.996-22.543,33.041-38.893,35.106c-0.344,2.754-0.517,5.334-0.517,7.398C471.087,198.1,478.487,201.541,485.198,201.541z
		 M494.146,135.458c-9.638,0-17.554,19.446-21.166,35.624c15.832-0.174,27.018-13.768,27.188-25.986
		C500.17,141.482,499.31,135.458,494.146,135.458z M517.552,190.699c-2.063,0-4.131-0.516-6.194-1.549
		c0,10.151,5.506,14.627,14.627,14.627c5.852,0,14.282-7.228,14.282-20.479c0-10.668-7.743-19.789-8.088-41.301
		c-2.754,8.433-5.162,19.444-8.948,28.051c4.131,1.377,5.68,4.476,5.68,9.638C528.909,186.225,523.575,190.699,517.552,190.699z"/>
	<path fill="#35424D" d="M641.106,186.396c-0.517,2.065-0.859,3.959-0.859,5.508c0,3.785,1.893,6.367,8.604,6.367
		c6.884,0,15.832-9.638,22.718-15.146h5.85c-7.916,7.916-27.361,30.806-40.785,30.806c-13.422,0-21.338-5.853-21.338-18.759
		c0-2.754,0.344-5.508,1.031-8.776l6.541-30.977c0.344-1.549,0.516-3.098,0.516-4.475c0-6.194-3.27-10.152-7.916-10.152
		c-4.131,0-7.229,1.205-10.67,3.614l-14.799,69.524h-24.781L590.17,96.91l25.469-3.441l-9.293,43.538
		c7.058-4.99,14.974-9.121,22.371-9.121c9.293,0,19.791,9.981,19.791,21.511c0,1.376,0,2.753-0.344,4.128L641.106,186.396z"/>
	<path fill="#35424D" d="M721.815,151.463c1.032,1.033,2.581,1.549,4.991,1.549c8.088,0,11.701-5.851,18.068-8.432l0.689,3.614
		c-5.336,6.71-14.285,12.391-24.267,15.145c-3.27,34.59-22.026,51.625-39.235,51.625c-18.412,0-26.33-7.744-26.33-28.223
		c0-42.333,21.512-60.574,45.26-60.574C717.343,126.166,721.472,138.9,721.815,151.463z M708.565,165.059
		c-4.99,0-7.229-3.615-7.229-7.744c0-4.99,2.926-10.325,7.572-12.046c-0.517-5.679-2.408-8.948-7.228-8.948
		c-16.178,0-23.061,35.106-23.061,48.872c0,10.326,4.818,13.08,11.529,13.08C700.649,198.271,706.501,181.75,708.565,165.059z"/>
	<path fill="#35424D" d="M793.747,151.463c1.033,1.033,2.582,1.549,4.99,1.549c8.088,0,11.703-5.851,18.069-8.432l0.688,3.614
		c-5.334,6.71-14.283,12.391-24.264,15.145c-3.271,34.59-22.027,51.625-39.236,51.625c-18.414,0-26.33-7.744-26.33-28.223
		c0-42.333,21.512-60.574,45.26-60.574C789.271,126.166,793.403,138.9,793.747,151.463z M780.497,165.059
		c-4.992,0-7.229-3.615-7.229-7.744c0-4.99,2.927-10.325,7.572-12.046c-0.518-5.679-2.41-8.948-7.229-8.948
		c-16.177,0-23.06,35.106-23.06,48.872c0,10.326,4.818,13.08,11.529,13.08C772.581,198.271,778.431,181.75,780.497,165.059z"/>
	<path fill="#35424D" d="M847.265,100.697c0,0-2.582,11.702-5.852,27.19h10.324l-1.377,6.884h-10.324
		c-11.875,54.379-11.703,56.101-11.703,56.961c0,3.957,1.723,6.539,8.604,6.539c6.883,0,15.832-9.637,22.716-15.145h5.852
		c-7.916,7.916-27.361,30.805-40.785,30.805c-13.25,0-21.338-5.852-21.338-18.758c0-9.121,8.947-45.604,11.873-60.403h-5.678
		l1.375-6.884h5.68l5.162-23.748L847.265,100.697z"/>
	<path fill="#35424D" d="M887.188,201.541c8.432,0,22.889-9.98,28.909-22.717h7.744c-9.809,17.727-26.328,35.107-48.528,35.107
		c-16.521,0-25.47-12.563-25.47-27.363c0-21.855,9.293-60.23,40.613-60.23c14.111,0,22.027,5.851,22.027,17.897
		c0,20.996-22.544,33.041-38.894,35.106c-0.344,2.754-0.516,5.334-0.516,7.398C873.075,198.1,880.476,201.541,887.188,201.541z
		 M896.136,135.458c-9.637,0-17.553,19.446-21.168,35.624c15.832-0.174,27.019-13.768,27.191-25.986
		C902.159,141.482,901.298,135.458,896.136,135.458z"/>
	<path fill="#35424D" d="M951.718,127.887l-1.895,8.604c6.194-4.818,13.08-8.604,20.307-8.604c7.744,0,12.392,4.475,12.392,11.014
		c0,6.023-4.476,13.423-12.906,13.423c-9.637,0-4.818-11.358-9.98-11.358c-5.164,0-7.916,1.893-11.875,5.507l-14.283,67.458h-24.78
		l18.241-86.044H951.718z"/>
</g>
</svg>
