<?xml version="1.0" encoding="utf-8"?>
<!-- Generator: Adobe Illustrator 16.0.0, SVG Export Plug-In . SVG Version: 6.00 Build 0)  -->
<!DOCTYPE svg PUBLIC "-//W3C//DTD SVG 1.1//EN" "http://www.w3.org/Graphics/SVG/1.1/DTD/svg11.dtd">
<svg version="1.1" id="Layer_1" xmlns="http://www.w3.org/2000/svg" xmlns:xlink="http://www.w3.org/1999/xlink" x="0px" y="0px"
	 width="800px" height="800px" viewBox="0 0 800 800" enable-background="new 0 0 800 800" xml:space="preserve">
<g>
	<path fill-rule="evenodd" clip-rule="evenodd" fill="#D7D9DB" d="M16.65,673.228c51.296-51.299,102.609-102.582,153.842-153.946
		c2.705-2.712,5.464-4.093,9.341-4.6c26.456-3.462,49.206-14.834,68.123-33.535c13.512-13.357,21.531-29.478,22.604-48.779
		c0.119-2.145,1.368-4.596,2.845-6.225c4.296-4.741,9.122-9.001,13.442-13.723c2.247-2.456,3.934-2.352,6.575-0.655
		c11.354,7.29,22.843,14.368,34.603,21.724c1.392-1.332,2.77-2.602,4.093-3.925c89.961-90.012,179.935-180.01,269.788-270.129
		c2.52-2.526,4.447-6.133,5.451-9.585c2.849-9.791,4.999-19.783,7.619-29.644c0.446-1.68,1.507-3.604,2.879-4.571
		c30.979-21.833,62.042-43.548,92.585-64.933c9.644,9.656,19.126,19.149,28.952,28.988c-0.383,0.59-1.267,2.047-2.241,3.441
		c-20.428,29.218-40.808,58.469-61.412,87.562c-1.599,2.259-4.564,4.146-7.264,4.924c-9.8,2.821-19.796,4.954-29.627,7.672
		c-2.513,0.694-5.125,2.157-6.965,3.995c-90.642,90.555-181.204,181.189-271.771,271.818c-0.968,0.969-1.872,2-3.136,3.356
		c7.855,12.604,15.695,25.183,23.798,38.185c-6.002,6.029-11.888,12.075-17.972,17.914c-0.963,0.924-2.799,1.215-4.261,1.3
		c-22.667,1.321-40.625,11.791-54.944,28.793c-15.751,18.703-25.585,40.112-28.278,64.642c-0.229,2.093-1.864,4.346-3.444,5.93
		c-50.118,50.273-100.312,100.473-150.49,150.687c-1.342,1.344-2.642,2.728-3.961,4.093c-2.771,0-5.541,0-8.312,0
		c-0.633-0.262-1.243-0.628-1.901-0.77c-42.174-9.096-69.615-35.285-85.788-74.307c-2.282-5.508-3.214-11.576-4.771-17.385
		C16.65,678.769,16.65,675.998,16.65,673.228z"/>
	<path fill-rule="evenodd" clip-rule="evenodd" fill="#D7D9DB" d="M783.35,617.128c-1.643,2.539-3.285,5.08-5.153,7.968
		c-6.762-3.845-13.51-7.664-20.24-11.511c-25.382-14.505-50.79-28.964-76.094-43.604c-2.968-1.717-5.081-1.662-7.976,0.091
		c-39.362,23.838-57.389,59.484-57.96,104.705c-0.024,1.89,2.116,4.543,3.961,5.61c30.245,17.494,60.607,34.789,90.938,52.136
		c1.636,0.936,3.239,1.931,5.378,3.209c-2.911,5.818-5.63,11.542-8.674,17.086c-0.569,1.037-2.44,1.948-3.7,1.933
		c-33.832-0.399-67.419-2.558-99.843-13.537c-42.787-14.489-66.288-44.601-71.91-88.938c-1.563-12.329-1.458-24.864-2.749-37.239
		c-0.596-5.709-1.472-12.025-4.381-16.732c-7.159-11.585-14.51-23.368-23.669-33.343c-32.183-35.048-65.144-69.384-97.871-103.931
		c-2.587-2.73-5.665-4.997-8.289-7.282c26.248-26.198,51.58-51.482,77.201-77.055c0.974,0.91,2.326,2.148,3.652,3.415
		c29.548,28.196,58.799,56.715,88.801,84.418c10.225,9.442,22.184,17.058,33.646,25.088c6.478,4.538,13.909,6.278,22.045,6.378
		c24.908,0.306,49.295,3.96,72.514,13.53c38.622,15.918,64.144,44.788,80.966,82.175c3.311,7.358,6.28,14.871,9.407,22.313
		C783.35,615.05,783.35,616.089,783.35,617.128z"/>
	<path fill-rule="evenodd" clip-rule="evenodd" fill="#D7D9DB" d="M137.161,26c10.129,1.021,20.396,1.324,30.357,3.227
		c16.765,3.203,33.773,6.108,49.903,11.473c40.522,13.481,63.09,42.711,69.148,84.62c1.9,13.146,2.547,26.51,3.059,39.801
		c0.256,6.632,1.276,12.86,5.018,18.193c8.531,12.162,16.444,24.967,26.391,35.887c29.242,32.104,59.345,63.425,89.155,95.009
		c1.284,1.359,3.025,2.286,4.31,3.234c-26.194,26.145-51.536,51.438-78.474,78.324c-0.694-1.268-1.312-3.517-2.761-4.878
		c-28.752-27.006-57.373-54.159-86.571-80.676c-8.381-7.612-18.353-13.526-27.842-19.847c-6.158-4.101-13.126-5.617-20.681-5.66
		c-27.094-0.151-53.38-4.694-78.146-16.173c-37.72-17.483-61.539-47.665-77.311-85.115c-1.408-3.344-2.377-6.908-4.074-10.089
		c-3.354-6.283-2.316-11.837,2.293-17.436c1.492,0.771,3.148,1.552,4.733,2.458c30.482,17.424,60.983,34.817,91.39,52.372
		c3.093,1.785,5.328,1.79,8.382-0.063c39.155-23.771,56.906-59.364,58.192-104.274c0.104-3.649-1.927-4.738-4.352-6.123
		c-30.339-17.326-60.666-34.673-90.992-52.021c-1.642-0.939-3.253-1.931-5.183-3.079c3.083-6.479,6.102-12.821,9.12-19.164
		C120.539,26,128.851,26,137.161,26z"/>
</g>
</svg>
